<svg xmlns="http://www.w3.org/2000/svg" viewBox="0 0 2500 2500">
  <path fill="#fff" d="M0 1250c0-345.1 122.1-639.6 366.2-883.8C610.4 122.1 904.9 0 1250 0c345 0 639.6 122.1 883.8 366.2C2377.9 610.4 2500 904.9 2500 1250s-122.1 639.6-366.2 883.8S1595.1 2500 1250 2500c-345.1 0-639.7-122.1-883.8-366.2C122.1 1889.6 0 1595 0 1250zm136.7 0c0 306 109 568 327.1 786.1C682 2254.2 944 2363.3 1250 2363.3c306 0 568-109 786.1-327.1s327.1-480.1 327.1-786.1-109-568-327.1-786.1C1818 245.8 1556 136.7 1250 136.7s-568 109-786.1 327.1C245.8 682 136.7 944 136.7 1250zm351.6 268.6c-6.5-6.5-6.5-13 0-19.5 13-13 29.3-17.9 48.8-14.6 19.5 3.3 30.9 6.5 34.2 9.8 22.8 9.8 48 31.7 75.7 65.9 27.7 34.2 49.6 57.8 65.9 70.8 78.1 65.1 157.9 70 239.3 14.6 6.5-22.8 17.1-42.3 31.7-58.6 14.6-16.3 28.5-27.7 41.5-34.2 13-6.5 35.8-16.3 68.4-29.3-107.4-9.8-194.5-28.5-261.2-56.2-66.7-27.7-119.6-62.7-158.7-105-52.1-58.6-83.8-135.1-95.2-229.5-11.4-94.4-4.1-180.7 22-258.8 19.5-48.8 47.2-92.8 83-131.8-26-81.4-21.2-174.2 14.6-278.3 104.2 6.5 198.6 42.3 283.2 107.4 162.8-42.3 332-43.9 507.8-4.9 22.8-16.3 57.8-36.6 105-61s106.6-38.2 178.2-41.5c13 35.8 22 78.1 26.9 127s2.4 94.4-7.3 136.7c74.9 78.1 113.9 182.3 117.2 312.5 0 104.2-17.9 190.4-53.7 258.8-35.8 68.4-99.3 125.3-190.4 170.9-61.8 29.3-143.2 47.2-244.1 53.7 45.6 22.8 78.9 46.4 100.1 70.8 21.2 24.4 35 62.7 41.5 114.7v153.8l4.9 148.9c9.8 16.3 21.2 30.1 34.2 41.5 13 11.4 24.4 19.5 34.2 24.4 9.8 4.9 13 12.2 9.8 22-3.3 9.8-16.3 14.6-39.1 14.6-55.3 0-99.3-19.5-131.8-58.6-9.8-16.3-14.6-35.8-14.6-58.6v-234.4c0-26-6.5-44.8-19.5-56.2-13-11.4-26-18.7-39.1-22V1992c0 55.3 6.5 91.1 19.5 107.4 13 16.3 21.2 32.6 24.4 48.8 3.3 3.3.8 5.7-7.3 7.3-8.1 1.6-22-.8-41.5-7.3-42.3-9.8-71.6-31.7-87.9-65.9-16.3-34.2-24.4-70.8-24.4-109.9v-302.7H1221v302.7c0 39.1-8.1 76.5-24.4 112.3-22.8 45.6-65.1 70-127 73.2-9.8-3.3-14.6-6.5-14.6-9.8 3.3-3.3 13-19.5 29.3-48.8 3.3-6.5 7.3-19.5 12.2-39.1 4.9-19.5 7.3-42.3 7.3-68.4v-307.6c-13 3.3-25.2 10.6-36.6 22-11.4 11.4-17.1 30.1-17.1 56.2v234.4c0 22.8-4.9 42.3-14.6 58.6-29.3 39.1-73.2 58.6-131.8 58.6-22.8 0-35.8-4.9-39.1-14.6-3.3-6.5-2.4-12.2 2.4-17.1s12.2-10.6 22-17.1 16.3-11.4 19.5-14.6c13-9.8 22.8-22.8 29.3-39.1 9.8-13 12.2-47.2 7.3-102.5-4.9-55.3-5.7-91.1-2.4-107.4-84.6 29.3-170.9 14.6-258.8-43.9-26-26-52.1-63.5-78.1-112.3-19.9-35.7-58.9-78-117.5-126.8z"/>
</svg>